<svg width="1772" height="226" version="1.1" xmlns="http://www.w3.org/2000/svg" desc="Created with imagetracer.js version 1.2.6" ><path fill="rgb(164,164,164)" stroke="rgb(164,164,164)" stroke-width="1" opacity="1" d="M 439.5 0 L 443 0.5 L 439.5 1 L 439.5 0 Z " /><path fill="rgb(164,164,164)" stroke="rgb(164,164,164)" stroke-width="1" opacity="1" d="M 466.5 0 L 470 0.5 L 466.5 1 L 466.5 0 Z " /><path fill="rgb(164,164,164)" stroke="rgb(164,164,164)" stroke-width="1" opacity="1" d="M 588.5 5 L 589 221 L 730.5 221 L 731 220.5 L 731 181.5 L 732 181.5 L 732 220.5 L 730.5 222 L 589.5 222 L 588 220.5 L 588.5 5 Z " /><path fill="rgb(164,164,164)" stroke="rgb(164,164,164)" stroke-width="1" opacity="1" d="M 865.5 5 L 866 221 L 897 221.5 L 866.5 222 L 865 220.5 L 865.5 5 Z " /><path fill="rgb(164,164,164)" stroke="rgb(164,164,164)" stroke-width="1" opacity="1" d="M 1003.5 5 L 1004 31.5 L 1003 31.5 L 1003.5 5 Z " /><path fill="rgb(164,164,164)" stroke="rgb(164,164,164)" stroke-width="1" opacity="1" d="M 1047.5 5 L 1048 221 L 1075.5 221 L 1076 220.5 L 1076 5.5 L 1077 5.5 L 1077 220.5 L 1075.5 222 L 1048.5 222 L 1047 220.5 L 1047.5 5 Z " /><path fill="rgb(164,164,164)" stroke="rgb(164,164,164)" stroke-width="1" opacity="1" d="M 1151.5 5 L 1152 199.5 L 1151 199.5 L 1151.5 5 Z " /><path fill="rgb(164,164,164)" stroke="rgb(164,164,164)" stroke-width="1" opacity="1" d="M 1438.5 5 L 1439 221 L 1580.5 221 L 1581 220.5 L 1581 206.5 L 1582 206.5 L 1582 220.5 L 1580.5 222 L 1439.5 222 L 1438 220.5 L 1438.5 5 Z " /><path fill="rgb(164,164,164)" stroke="rgb(164,164,164)" stroke-width="1" opacity="1" d="M 1617.5 5 L 1618 221 L 1630.5 221 L 1631 220.5 L 1631 118 L 1710.5 118 L 1710.5 119 L 1632 119 L 1632 220.5 L 1630.5 222 L 1618.5 222 L 1617 220.5 L 1617.5 5 Z " /><path fill="rgb(164,164,164)" stroke="rgb(164,164,164)" stroke-width="1" opacity="1" d="M 1710.5 5 L 1715 5.5 L 1710.5 6 L 1710.5 5 Z " /><path fill="rgb(164,164,164)" stroke="rgb(164,164,164)" stroke-width="1" opacity="1" d="M 1719.5 6 L 1722 6.5 L 1719.5 7 L 1719.5 6 Z " /><path fill="rgb(164,164,164)" stroke="rgb(164,164,164)" stroke-width="1" opacity="1" d="M 1631.5 17 L 1632 106 L 1703 106.5 L 1632.5 107 L 1631 105.5 L 1631.5 17 Z " /><path fill="rgb(164,164,164)" stroke="rgb(164,164,164)" stroke-width="1" opacity="1" d="M 1709.5 17 L 1713 17.5 L 1709.5 18 L 1709.5 17 Z " /><path fill="rgb(164,164,164)" stroke="rgb(164,164,164)" stroke-width="1" opacity="1" d="M 1749.5 17 L 1750.5 19 L 1749.5 17 Z " /><path fill="rgb(164,164,164)" stroke="rgb(164,164,164)" stroke-width="1" opacity="1" d="M 517.5 20 L 518.5 22 L 517.5 20 Z " /><path fill="rgb(164,164,164)" stroke="rgb(164,164,164)" stroke-width="1" opacity="1" d="M 1456.5 20 L 1579 20.5 L 1456 21 L 1455.5 101 L 1455 21.5 L 1456.5 20 Z " /><path fill="rgb(164,164,164)" stroke="rgb(164,164,164)" stroke-width="1" opacity="1" d="M 1313.5 23 L 1314 221 L 1333.5 221 L 1334 220.5 L 1334 23.5 L 1335 23.5 L 1335 220.5 L 1333.5 222 L 1314.5 222 L 1313 220.5 L 1313.5 23 Z " /><path fill="rgb(164,164,164)" stroke="rgb(164,164,164)" stroke-width="1" opacity="1" d="M 1736.5 25 L 1737.5 27 L 1736.5 25 Z " /><path fill="rgb(164,164,164)" stroke="rgb(164,164,164)" stroke-width="1" opacity="1" d="M 1740.5 28 L 1742.5 31 L 1740.5 28 Z " /><path fill="rgb(164,164,164)" stroke="rgb(164,164,164)" stroke-width="1" opacity="1" d="M 1745.5 33 L 1746.5 35 L 1745.5 33 Z " /><path fill="rgb(164,164,164)" stroke="rgb(164,164,164)" stroke-width="1" opacity="1" d="M 375.5 35 L 374.5 37 L 375.5 35 Z " /><path fill="rgb(164,164,164)" stroke="rgb(164,164,164)" stroke-width="1" opacity="1" d="M 531.5 35 L 532.5 37 L 531.5 35 Z " /><path fill="rgb(164,164,164)" stroke="rgb(164,164,164)" stroke-width="1" opacity="1" d="M 533.5 38 L 534.5 40 L 533.5 38 Z " /><path fill="rgb(164,164,164)" stroke="rgb(164,164,164)" stroke-width="1" opacity="1" d="M 372.5 39 L 371.5 41 L 372.5 39 Z " /><path fill="rgb(164,164,164)" stroke="rgb(164,164,164)" stroke-width="1" opacity="1" d="M 446.5 40 L 452 40.5 L 446.5 41 L 446.5 40 Z " /><path fill="rgb(164,164,164)" stroke="rgb(164,164,164)" stroke-width="1" opacity="1" d="M 458.5 40 L 462 40.5 L 458.5 41 L 458.5 40 Z " /><path fill="rgb(164,164,164)" stroke="rgb(164,164,164)" stroke-width="1" opacity="1" d="M 48.5 45 L 137 45.5 L 48 46 L 48 94 L 122.5 94 L 122.5 95 L 48.5 95 L 47 93.5 L 47 46.5 L 48.5 45 Z " /><path fill="rgb(164,164,164)" stroke="rgb(164,164,164)" stroke-width="1" opacity="1" d="M 637.5 45 L 729 45.5 L 637 46 L 636.5 91 L 636 46.5 L 637.5 45 Z " /><path fill="rgb(164,164,164)" stroke="rgb(164,164,164)" stroke-width="1" opacity="1" d="M 424.5 48 L 423.5 50 L 424.5 48 Z " /><path fill="rgb(164,164,164)" stroke="rgb(164,164,164)" stroke-width="1" opacity="1" d="M 420.5 51 L 418.5 54 L 420.5 51 Z " /><path fill="rgb(164,164,164)" stroke="rgb(164,164,164)" stroke-width="1" opacity="1" d="M 1768.5 51 L 1769 55.5 L 1768 55.5 L 1768.5 51 Z " /><path fill="rgb(164,164,164)" stroke="rgb(164,164,164)" stroke-width="1" opacity="1" d="M 487.5 52 L 491.5 57 L 487.5 52 Z " /><path fill="rgb(164,164,164)" stroke="rgb(164,164,164)" stroke-width="1" opacity="1" d="M 1754.5 52 L 1755 54.5 L 1754 54.5 L 1754.5 52 Z " /><path fill="rgb(164,164,164)" stroke="rgb(164,164,164)" stroke-width="1" opacity="1" d="M 415.5 56 L 414.5 58 L 415.5 56 Z " /><path fill="rgb(164,164,164)" stroke="rgb(164,164,164)" stroke-width="1" opacity="1" d="M 411.5 61 L 410.5 63 L 411.5 61 Z " /><path fill="rgb(164,164,164)" stroke="rgb(164,164,164)" stroke-width="1" opacity="1" d="M 1754.5 68 L 1755 70.5 L 1754 70.5 L 1754.5 68 Z " /><path fill="rgb(164,164,164)" stroke="rgb(164,164,164)" stroke-width="1" opacity="1" d="M 1768.5 68 L 1769 72.5 L 1768 72.5 L 1768.5 68 Z " /><path fill="rgb(164,164,164)" stroke="rgb(164,164,164)" stroke-width="1" opacity="1" d="M 1746.5 88 L 1745.5 90 L 1746.5 88 Z " /><path fill="rgb(164,164,164)" stroke="rgb(164,164,164)" stroke-width="1" opacity="1" d="M 351.5 90 L 352 92.5 L 351 92.5 L 351.5 90 Z " /><path fill="rgb(164,164,164)" stroke="rgb(164,164,164)" stroke-width="1" opacity="1" d="M 1740.5 94 L 1739.5 96 L 1740.5 94 Z " /><path fill="rgb(164,164,164)" stroke="rgb(164,164,164)" stroke-width="1" opacity="1" d="M 398.5 95 L 399 97.5 L 398 97.5 L 398.5 95 Z " /><path fill="rgb(164,164,164)" stroke="rgb(164,164,164)" stroke-width="1" opacity="1" d="M 989.5 96 L 990 122.5 L 989 122.5 L 989.5 96 Z " /><path fill="rgb(164,164,164)" stroke="rgb(164,164,164)" stroke-width="1" opacity="1" d="M 350.5 98 L 351 101.5 L 350 101.5 L 350.5 98 Z " /><path fill="rgb(164,164,164)" stroke="rgb(164,164,164)" stroke-width="1" opacity="1" d="M 1755.5 100 L 1754.5 102 L 1755.5 100 Z " /><path fill="rgb(164,164,164)" stroke="rgb(164,164,164)" stroke-width="1" opacity="1" d="M 397.5 104 L 398 123.5 L 397 123.5 L 397.5 104 Z " /><path fill="rgb(164,164,164)" stroke="rgb(164,164,164)" stroke-width="1" opacity="1" d="M 1711.5 105 L 1714 105.5 L 1711.5 106 L 1711.5 105 Z " /><path fill="rgb(164,164,164)" stroke="rgb(164,164,164)" stroke-width="1" opacity="1" d="M 1456.5 116 L 1571 116.5 L 1456 117 L 1455.5 206 L 1455 117.5 L 1456.5 116 Z " /><path fill="rgb(164,164,164)" stroke="rgb(164,164,164)" stroke-width="1" opacity="1" d="M 1744.5 118 L 1745.5 120 L 1744.5 118 Z " /><path fill="rgb(164,164,164)" stroke="rgb(164,164,164)" stroke-width="1" opacity="1" d="M 1748.5 121 L 1749.5 123 L 1748.5 121 Z " /><path fill="rgb(164,164,164)" stroke="rgb(164,164,164)" stroke-width="1" opacity="1" d="M 350.5 125 L 351 129.5 L 350 129.5 L 350.5 125 Z " /><path fill="rgb(164,164,164)" stroke="rgb(164,164,164)" stroke-width="1" opacity="1" d="M 1753.5 126 L 1754.5 128 L 1753.5 126 Z " /><path fill="rgb(164,164,164)" stroke="rgb(164,164,164)" stroke-width="1" opacity="1" d="M 637.5 128 L 722 128.5 L 637 129 L 636.5 181 L 636 129.5 L 637.5 128 Z " /><path fill="rgb(164,164,164)" stroke="rgb(164,164,164)" stroke-width="1" opacity="1" d="M 398.5 129 L 399 131.5 L 398 131.5 L 398.5 129 Z " /><path fill="rgb(164,164,164)" stroke="rgb(164,164,164)" stroke-width="1" opacity="1" d="M 47.5 132 L 48 220.5 L 46.5 222 L 0.5 222 L 0.5 221 L 47 221 L 47.5 132 Z " /><path fill="rgb(164,164,164)" stroke="rgb(164,164,164)" stroke-width="1" opacity="1" d="M 1742.5 133 L 1743.5 135 L 1742.5 133 Z " /><path fill="rgb(164,164,164)" stroke="rgb(164,164,164)" stroke-width="1" opacity="1" d="M 214.5 137 L 264 137.5 L 214.5 138 L 214.5 137 Z " /><path fill="rgb(164,164,164)" stroke="rgb(164,164,164)" stroke-width="1" opacity="1" d="M 504.5 137 L 549 137.5 L 504.5 138 L 504.5 137 Z " /><path fill="rgb(164,164,164)" stroke="rgb(164,164,164)" stroke-width="1" opacity="1" d="M 548.5 143 L 549 145.5 L 548 145.5 L 548.5 143 Z " /><path fill="rgb(164,164,164)" stroke="rgb(164,164,164)" stroke-width="1" opacity="1" d="M 547.5 149 L 548 151.5 L 547 151.5 L 547.5 149 Z " /><path fill="rgb(164,164,164)" stroke="rgb(164,164,164)" stroke-width="1" opacity="1" d="M 1750.5 153 L 1751 157.5 L 1750 157.5 L 1750.5 153 Z " /><path fill="rgb(164,164,164)" stroke="rgb(164,164,164)" stroke-width="1" opacity="1" d="M 1764.5 153 L 1765 157.5 L 1764 157.5 L 1764.5 153 Z " /><path fill="rgb(164,164,164)" stroke="rgb(164,164,164)" stroke-width="1" opacity="1" d="M 412.5 166 L 413.5 168 L 412.5 166 Z " /><path fill="rgb(164,164,164)" stroke="rgb(164,164,164)" stroke-width="1" opacity="1" d="M 1765.5 167 L 1766 198.5 L 1765 198.5 L 1765.5 167 Z " /><path fill="rgb(164,164,164)" stroke="rgb(164,164,164)" stroke-width="1" opacity="1" d="M 491.5 169 L 490.5 171 L 491.5 169 Z " /><path fill="rgb(164,164,164)" stroke="rgb(164,164,164)" stroke-width="1" opacity="1" d="M 1751.5 169 L 1752 197.5 L 1751 197.5 L 1751.5 169 Z " /><path fill="rgb(164,164,164)" stroke="rgb(164,164,164)" stroke-width="1" opacity="1" d="M 201.5 173 L 277 173.5 L 201.5 174 L 201.5 173 Z " /><path fill="rgb(164,164,164)" stroke="rgb(164,164,164)" stroke-width="1" opacity="1" d="M 420.5 174 L 421.5 176 L 420.5 174 Z " /><path fill="rgb(164,164,164)" stroke="rgb(164,164,164)" stroke-width="1" opacity="1" d="M 444.5 185 L 448 185.5 L 444.5 186 L 444.5 185 Z " /><path fill="rgb(164,164,164)" stroke="rgb(164,164,164)" stroke-width="1" opacity="1" d="M 462.5 185 L 465 185.5 L 462.5 186 L 462.5 185 Z " /><path fill="rgb(164,164,164)" stroke="rgb(164,164,164)" stroke-width="1" opacity="1" d="M 372.5 187 L 373.5 189 L 372.5 187 Z " /><path fill="rgb(164,164,164)" stroke="rgb(164,164,164)" stroke-width="1" opacity="1" d="M 376.5 192 L 378.5 195 L 376.5 192 Z " /><path fill="rgb(164,164,164)" stroke="rgb(164,164,164)" stroke-width="1" opacity="1" d="M 384.5 200 L 386.5 203 L 384.5 200 Z " /><path fill="rgb(164,164,164)" stroke="rgb(164,164,164)" stroke-width="1" opacity="1" d="M 1264.5 200 L 1265 220.5 L 1263.5 222 L 1127.5 222 L 1127.5 221 L 1263.5 221 L 1264 220.5 L 1264.5 200 Z " /><path fill="rgb(164,164,164)" stroke="rgb(164,164,164)" stroke-width="1" opacity="1" d="M 390.5 205 L 391.5 207 L 390.5 205 Z " /><path fill="rgb(164,164,164)" stroke="rgb(164,164,164)" stroke-width="1" opacity="1" d="M 1766.5 205 L 1767 207.5 L 1766 207.5 L 1766.5 205 Z " /><path fill="rgb(164,164,164)" stroke="rgb(164,164,164)" stroke-width="1" opacity="1" d="M 515.5 206 L 514.5 208 L 515.5 206 Z " /><path fill="rgb(164,164,164)" stroke="rgb(164,164,164)" stroke-width="1" opacity="1" d="M 511.5 209 L 510.5 211 L 511.5 209 Z " /><path fill="rgb(164,164,164)" stroke="rgb(164,164,164)" stroke-width="1" opacity="1" d="M 136.5 220 L 137.5 221 L 184 221.5 L 137.5 222 L 136.5 220 Z " /><path fill="rgb(164,164,164)" stroke="rgb(164,164,164)" stroke-width="1" opacity="1" d="M 292.5 220 L 293.5 221 L 341.5 221 L 343 220.5 L 341.5 222 L 293.5 222 L 292.5 220 Z " /><path fill="rgb(164,164,164)" stroke="rgb(164,164,164)" stroke-width="1" opacity="1" d="M 1771.5 220 L 1770.5 222 L 1757 221.5 L 1770.5 221 L 1771.5 220 Z " /><path fill="rgb(164,164,164)" stroke="rgb(164,164,164)" stroke-width="1" opacity="1" d="M 439.5 225 L 444 225.5 L 439.5 226 L 439.5 225 Z " /><path fill="rgb(164,164,164)" stroke="rgb(164,164,164)" stroke-width="1" opacity="1" d="M 466.5 225 L 470 225.5 L 466.5 226 L 466.5 225 Z " /><path fill="rgb(0,0,0)" stroke="rgb(0,0,0)" stroke-width="1" opacity="1" d="M 447.5 0 L 471.5 1 L 485.5 4 L 496.5 8 Q 516.9 17.1 530 33.5 Q 538 44 543 57.5 L 547 77 L 502.5 77 L 502 75.5 Q 497.6 57.9 484.5 49 Q 476.2 42.2 463.5 40 L 444.5 40 Q 422.8 44.3 412 59.5 Q 402.9 71.4 399 88.5 L 398 100.5 L 397 101.5 L 397 126.5 L 398 127.5 L 399 138.5 L 403 151.5 Q 408.8 164.7 418.5 174 Q 426.5 181.5 438.5 185 L 458.5 187 L 473.5 184 L 489 173.5 L 500 155.5 L 504 138 L 548.5 138 L 549 139.5 L 545 160.5 L 539 176.5 Q 531.4 191.9 519.5 203 Q 505.9 215.9 485.5 222 L 462.5 226 L 447.5 226 L 446.5 225 L 431.5 224 L 407.5 216 Q 388.7 206.8 376 191.5 Q 361.9 175.1 355 151.5 L 351 131.5 L 350 107.5 L 351 106.5 L 351 95.5 L 352 94.5 L 353 83.5 L 360 61.5 Q 369.3 39.8 385.5 25 Q 397 14.5 412.5 8 L 427.5 3 L 437.5 1 L 446.5 1 L 447.5 0 Z " /><path fill="rgb(0,0,0)" stroke="rgb(0,0,0)" stroke-width="1" opacity="1" d="M 0 5 L 136.5 5 L 137 5.5 L 137 45 L 47 45 L 47 95 L 123 95 L 123 132 L 47 132 L 47 221 L 0 221 L 0 5 Z " /><path fill="rgb(0,0,0)" stroke="rgb(0,0,0)" stroke-width="1" opacity="1" d="M 218 5 L 260.5 5 L 262 6.5 L 342 221 L 293.5 221 L 293 219.5 L 277 173 L 201.5 173 L 200 174.5 L 185 219.5 L 183.5 221 L 137.5 221 L 137 219.5 L 218 5 Z M 240 65 L 214 135 L 215 138 L 264 138 L 240 65 Z " /><path fill="rgb(0,0,0)" stroke="rgb(0,0,0)" stroke-width="1" opacity="1" d="M 589 5 L 728.5 5 L 729 5.5 L 729 45 L 636 45 L 636 92 L 722 92 L 722 128 L 636 128 L 636 181 L 731 181 L 731 221 L 589 221 L 589 5 Z " /><path fill="rgb(0,0,0)" stroke="rgb(0,0,0)" stroke-width="1" opacity="1" d="M 866 5 L 1002.5 5 L 1003 5.5 L 1003 32 L 898.5 32 L 897 33.5 L 897 96 L 988.5 96 L 989 96.5 L 989 123 L 898.5 123 L 897 124.5 L 897 220.5 L 896.5 221 L 866 221 L 866 5 Z " /><path fill="rgb(0,0,0)" stroke="rgb(0,0,0)" stroke-width="1" opacity="1" d="M 1048 5 L 1075.5 5 L 1076 5.5 L 1076 221 L 1048.5 221 L 1048 220.5 L 1048 5 Z " /><path fill="rgb(0,0,0)" stroke="rgb(0,0,0)" stroke-width="1" opacity="1" d="M 1127 5 L 1150.5 5 L 1151 5.5 L 1151 200 L 1263.5 200 L 1264 200.5 L 1264 221 L 1127 221 L 1127 5 Z " /><path fill="rgb(0,0,0)" stroke="rgb(0,0,0)" stroke-width="1" opacity="1" d="M 1247 5 L 1401.5 5 L 1402 5.5 L 1402 22 L 1334 22 L 1334 220.5 L 1333.5 221 L 1314 221 L 1314 22.5 L 1313.5 22 L 1247.5 22 L 1247 21.5 L 1247 5 Z " /><path fill="rgb(0,0,0)" stroke="rgb(0,0,0)" stroke-width="1" opacity="1" d="M 1439 5 L 1578.5 5 L 1579 5.5 L 1579 20 L 1455 20 L 1455 101 L 1570.5 101 L 1571 101.5 L 1571 116 L 1455 116 L 1455 206 L 1580.5 206 L 1581 206.5 L 1581 221 L 1439 221 L 1439 5 Z " /><path fill="rgb(0,0,0)" stroke="rgb(0,0,0)" stroke-width="1" opacity="1" d="M 1618 5 L 1705.5 5 L 1706.5 6 L 1716.5 6 L 1731.5 9 L 1739.5 12 Q 1749.3 16.3 1756 23.5 Q 1771.6 38.9 1768 73.5 Q 1764.8 92.8 1752.5 103 Q 1744.4 109.9 1733 113.5 L 1747.5 121 L 1755 128.5 L 1762 142.5 L 1764 151.5 L 1764 161.5 L 1765 162.5 L 1765 201.5 L 1767 212.5 L 1771 220.5 L 1757.5 221 L 1755 217.5 L 1752 204.5 L 1752 163.5 L 1751 162.5 L 1751 151.5 Q 1748.4 137.1 1739.5 129 L 1726.5 121 L 1713.5 118 L 1631 118 L 1631 220.5 L 1630.5 221 L 1618 221 L 1618 5 Z M 1631 16 L 1631 107 L 1708 107 Q 1709 104 1716 106 Q 1733 103 1744 93 Q 1750 87 1753 79 L 1756 65 L 1755 51 L 1748 36 L 1736 24 L 1724 19 L 1715 17 L 1707 17 L 1706 16 L 1631 16 Z " /><path fill="rgb(249,249,249)" stroke="rgb(249,249,249)" stroke-width="1" opacity="1" d="M 515.5 18 L 516.5 20 L 515.5 18 Z " /><path fill="rgb(249,249,249)" stroke="rgb(249,249,249)" stroke-width="1" opacity="1" d="M 391.5 19 L 390.5 21 L 391.5 19 Z " /><path fill="rgb(249,249,249)" stroke="rgb(249,249,249)" stroke-width="1" opacity="1" d="M 1752.5 19 L 1757.5 25 L 1752.5 19 Z " /><path fill="rgb(249,249,249)" stroke="rgb(249,249,249)" stroke-width="1" opacity="1" d="M 386.5 23 L 382.5 28 L 386.5 23 Z " /><path fill="rgb(249,249,249)" stroke="rgb(249,249,249)" stroke-width="1" opacity="1" d="M 521.5 23 L 526.5 29 L 521.5 23 Z " /><path fill="rgb(249,249,249)" stroke="rgb(249,249,249)" stroke-width="1" opacity="1" d="M 380.5 29 L 377.5 33 L 380.5 29 Z " /><path fill="rgb(249,249,249)" stroke="rgb(249,249,249)" stroke-width="1" opacity="1" d="M 1743.5 31 L 1744.5 33 L 1743.5 31 Z " /><path fill="rgb(249,249,249)" stroke="rgb(249,249,249)" stroke-width="1" opacity="1" d="M 529.5 32 L 530.5 34 L 529.5 32 Z " /><path fill="rgb(249,249,249)" stroke="rgb(249,249,249)" stroke-width="1" opacity="1" d="M 483.5 49 L 484.5 51 L 483.5 49 Z " /><path fill="rgb(249,249,249)" stroke="rgb(249,249,249)" stroke-width="1" opacity="1" d="M 417.5 54 L 416.5 56 L 417.5 54 Z " /><path fill="rgb(249,249,249)" stroke="rgb(249,249,249)" stroke-width="1" opacity="1" d="M 492.5 58 L 493.5 60 L 492.5 58 Z " /><path fill="rgb(249,249,249)" stroke="rgb(249,249,249)" stroke-width="1" opacity="1" d="M 1744.5 90 L 1741.5 94 L 1744.5 90 Z " /><path fill="rgb(249,249,249)" stroke="rgb(249,249,249)" stroke-width="1" opacity="1" d="M 1758.5 97 L 1756.5 100 L 1758.5 97 Z " /><path fill="rgb(249,249,249)" stroke="rgb(249,249,249)" stroke-width="1" opacity="1" d="M 1753.5 102 L 1751.5 105 L 1753.5 102 Z " /><path fill="rgb(249,249,249)" stroke="rgb(249,249,249)" stroke-width="1" opacity="1" d="M 1746.5 119 L 1747.5 121 L 1746.5 119 Z " /><path fill="rgb(249,249,249)" stroke="rgb(249,249,249)" stroke-width="1" opacity="1" d="M 1737.5 128 L 1741.5 133 L 1737.5 128 Z " /><path fill="rgb(249,249,249)" stroke="rgb(249,249,249)" stroke-width="1" opacity="1" d="M 1755.5 128 L 1756.5 130 L 1755.5 128 Z " /><path fill="rgb(249,249,249)" stroke="rgb(249,249,249)" stroke-width="1" opacity="1" d="M 414.5 168 L 419.5 174 L 414.5 168 Z " /><path fill="rgb(249,249,249)" stroke="rgb(249,249,249)" stroke-width="1" opacity="1" d="M 489.5 171 L 484.5 177 L 489.5 171 Z " /><path fill="rgb(249,249,249)" stroke="rgb(249,249,249)" stroke-width="1" opacity="1" d="M 374.5 190 L 375.5 192 L 374.5 190 Z " /><path fill="rgb(249,249,249)" stroke="rgb(249,249,249)" stroke-width="1" opacity="1" d="M 530.5 191 L 529.5 193 L 530.5 191 Z " /><path fill="rgb(249,249,249)" stroke="rgb(249,249,249)" stroke-width="1" opacity="1" d="M 526.5 196 L 517.5 206 L 526.5 196 Z " /><path fill="rgb(249,249,249)" stroke="rgb(249,249,249)" stroke-width="1" opacity="1" d="M 387.5 203 L 388.5 205 L 387.5 203 Z " /><path fill="rgb(255,255,255)" stroke="rgb(255,255,255)" stroke-width="1" opacity="1" d="M 0 0 L 439 0.5 Q 398.2 6.7 377 32.5 Q 361.3 50.3 354 76.5 L 350 97.5 L 350 130.5 L 355 154.5 L 365 177.5 Q 374.4 193.6 388.5 205 Q 399.9 214.1 414.5 220 L 427.5 224 L 439 225.5 L 0 226 L 0.5 222 L 48 222 L 48 132 L 124 132 L 124 94 L 48 94 L 48 46 L 138 46 L 138 5 L 0.5 5 L 0 0 Z M 217 5 L 136 220 L 137 222 L 185 222 L 201 177 L 202 174 L 277 174 L 292 221 L 294 222 L 343 222 L 263 7 L 262 5 L 217 5 Z " /><path fill="rgb(255,255,255)" stroke="rgb(255,255,255)" stroke-width="1" opacity="1" d="M 471.5 0 L 1771.5 0 L 1772 0.5 L 1772 219.5 L 1771 219.5 L 1766 203.5 L 1766 166.5 L 1765 165.5 L 1764 147.5 Q 1760.3 128.2 1746.5 119 L 1735 113.5 Q 1750.2 108.7 1759 97.5 Q 1765.3 89.7 1768 78.5 Q 1766.8 73.8 1769 72.5 L 1769 50.5 L 1763 31.5 L 1752.5 19 L 1739.5 11 L 1715.5 5 L 1617 5 L 1617 221.5 L 1617.5 222 L 1632 222 L 1632 119 L 1714.5 119 L 1723.5 121 L 1732.5 125 L 1744 135.5 L 1750 150.5 L 1752 210.5 L 1756 222 L 1771.5 222 L 1772 226 L 471 225.5 Q 508 220 527 196.5 Q 537 185 543 169.5 L 549 146.5 L 549 137 L 503.5 137 L 503 140.5 Q 500.6 155.1 494 165.5 L 482.5 178 Q 470.8 187.3 448.5 186 L 438.5 184 L 428.5 180 L 412 165.5 L 404 151.5 L 399 134.5 Q 400.5 129 398 127.5 L 398 99.5 L 404 75.5 Q 409.8 60.3 421.5 51 L 439.5 42 L 456.5 40 L 471.5 43 Q 484.2 47.8 492 57.5 Q 499.8 65 501 78 L 547.5 78 L 548 76.5 L 542 52.5 Q 534.6 34.9 521.5 23 Q 510.8 13.2 496.5 7 L 476.5 1 L 471.5 1 L 471.5 0 Z M 588 5 L 588 222 L 732 222 L 732 181 L 637 181 L 637 129 L 722 129 L 722 91 L 637 91 L 637 46 L 730 46 L 730 6 L 730 5 L 588 5 Z M 865 5 L 865 222 L 898 222 L 898 124 L 990 124 L 990 97 L 990 96 L 898 96 L 898 33 L 1004 33 L 1004 6 L 1004 5 L 865 5 Z M 1047 5 L 1047 222 L 1048 222 L 1077 222 L 1077 6 L 1077 5 L 1047 5 Z M 1127 5 L 1127 222 L 1265 222 L 1265 201 L 1265 200 L 1152 200 L 1152 6 L 1152 5 L 1127 5 Z M 1246 5 L 1246 23 L 1247 23 L 1313 23 L 1313 24 L 1313 222 L 1335 222 L 1335 222 L 1335 23 L 1402 23 L 1402 6 L 1402 5 L 1246 5 Z M 1438 5 L 1438 222 L 1582 222 L 1582 207 L 1582 206 L 1456 206 L 1456 117 L 1572 117 L 1572 102 L 1572 101 L 1456 101 L 1456 21 L 1580 21 L 1580 6 L 1580 5 L 1438 5 Z " /><path fill="rgb(255,255,255)" stroke="rgb(255,255,255)" stroke-width="1" opacity="1" d="M 1632 17 L 1708.5 17 Q 1710 19.5 1715.5 18 Q 1736.4 21.6 1747 35.5 L 1753 46.5 L 1755 56.5 L 1755 67.5 Q 1751.6 86.6 1738.5 96 L 1727.5 102 L 1709.5 106 L 1632 106 L 1632 17 Z " /><path fill="rgb(255,255,255)" stroke="rgb(255,255,255)" stroke-width="1" opacity="1" d="M 239.5 67 L 263 137 L 215.5 137 L 215 134.5 L 239.5 67 Z " /><path fill="rgb(58,58,58)" stroke="rgb(58,58,58)" stroke-width="1" opacity="1" d="M 443.5 0 L 447 0.5 L 443.5 1 L 443.5 0 Z " /><path fill="rgb(58,58,58)" stroke="rgb(58,58,58)" stroke-width="1" opacity="1" d="M 463.5 0 L 466 0.5 L 463.5 1 L 463.5 0 Z " /><path fill="rgb(58,58,58)" stroke="rgb(58,58,58)" stroke-width="1" opacity="1" d="M 137.5 5 L 138 44.5 L 137 44.5 L 137.5 5 Z " /><path fill="rgb(58,58,58)" stroke="rgb(58,58,58)" stroke-width="1" opacity="1" d="M 729.5 5 L 730 44.5 L 729 44.5 L 729.5 5 Z " /><path fill="rgb(58,58,58)" stroke="rgb(58,58,58)" stroke-width="1" opacity="1" d="M 1246.5 5 L 1247 22 L 1314 22.5 L 1247.5 23 L 1246 21.5 L 1246.5 5 Z " /><path fill="rgb(58,58,58)" stroke="rgb(58,58,58)" stroke-width="1" opacity="1" d="M 1579.5 5 L 1580 19.5 L 1579 19.5 L 1579.5 5 Z " /><path fill="rgb(58,58,58)" stroke="rgb(58,58,58)" stroke-width="1" opacity="1" d="M 1706.5 5 L 1710 5.5 L 1706.5 6 L 1706.5 5 Z " /><path fill="rgb(58,58,58)" stroke="rgb(58,58,58)" stroke-width="1" opacity="1" d="M 1631.5 16 L 1706 16.5 L 1631.5 17 L 1631.5 16 Z " /><path fill="rgb(58,58,58)" stroke="rgb(58,58,58)" stroke-width="1" opacity="1" d="M 514.5 18 L 515.5 20 L 514.5 18 Z " /><path fill="rgb(58,58,58)" stroke="rgb(58,58,58)" stroke-width="1" opacity="1" d="M 392.5 19 L 391.5 21 L 392.5 19 Z " /><path fill="rgb(58,58,58)" stroke="rgb(58,58,58)" stroke-width="1" opacity="1" d="M 1751.5 19 L 1752.5 21 L 1751.5 19 Z " /><path fill="rgb(58,58,58)" stroke="rgb(58,58,58)" stroke-width="1" opacity="1" d="M 388.5 22 L 386.5 25 L 388.5 22 Z " /><path fill="rgb(58,58,58)" stroke="rgb(58,58,58)" stroke-width="1" opacity="1" d="M 519.5 22 L 527.5 31 L 519.5 22 Z " /><path fill="rgb(58,58,58)" stroke="rgb(58,58,58)" stroke-width="1" opacity="1" d="M 1334.5 22 L 1402 22.5 L 1334.5 23 L 1334.5 22 Z " /><path fill="rgb(58,58,58)" stroke="rgb(58,58,58)" stroke-width="1" opacity="1" d="M 1756.5 24 L 1758.5 27 L 1756.5 24 Z " /><path fill="rgb(58,58,58)" stroke="rgb(58,58,58)" stroke-width="1" opacity="1" d="M 1738.5 26 L 1739.5 28 L 1738.5 26 Z " /><path fill="rgb(58,58,58)" stroke="rgb(58,58,58)" stroke-width="1" opacity="1" d="M 378.5 32 L 376.5 35 L 378.5 32 Z " /><path fill="rgb(58,58,58)" stroke="rgb(58,58,58)" stroke-width="1" opacity="1" d="M 898.5 32 L 1003 32.5 L 898 33 L 897.5 96 L 897 33.5 L 898.5 32 Z " /><path fill="rgb(58,58,58)" stroke="rgb(58,58,58)" stroke-width="1" opacity="1" d="M 484.5 49 L 486.5 52 L 484.5 49 Z " /><path fill="rgb(58,58,58)" stroke="rgb(58,58,58)" stroke-width="1" opacity="1" d="M 1768.5 56 L 1769 67.5 L 1768 67.5 L 1768.5 56 Z " /><path fill="rgb(58,58,58)" stroke="rgb(58,58,58)" stroke-width="1" opacity="1" d="M 492.5 57 L 493.5 59 L 492.5 57 Z " /><path fill="rgb(58,58,58)" stroke="rgb(58,58,58)" stroke-width="1" opacity="1" d="M 413.5 58 L 412.5 60 L 413.5 58 Z " /><path fill="rgb(58,58,58)" stroke="rgb(58,58,58)" stroke-width="1" opacity="1" d="M 1755.5 58 L 1756 64.5 L 1755 64.5 L 1755.5 58 Z " /><path fill="rgb(58,58,58)" stroke="rgb(58,58,58)" stroke-width="1" opacity="1" d="M 501.5 75 L 502 77 L 547 77.5 L 502.5 78 L 501.5 75 Z " /><path fill="rgb(58,58,58)" stroke="rgb(58,58,58)" stroke-width="1" opacity="1" d="M 1748.5 86 L 1747.5 88 L 1748.5 86 Z " /><path fill="rgb(58,58,58)" stroke="rgb(58,58,58)" stroke-width="1" opacity="1" d="M 636.5 91 L 722 91.5 L 636.5 92 L 636.5 91 Z " /><path fill="rgb(58,58,58)" stroke="rgb(58,58,58)" stroke-width="1" opacity="1" d="M 1744.5 91 L 1743.5 93 L 1744.5 91 Z " /><path fill="rgb(58,58,58)" stroke="rgb(58,58,58)" stroke-width="1" opacity="1" d="M 123.5 95 L 124 131.5 L 123 131.5 L 123.5 95 Z " /><path fill="rgb(58,58,58)" stroke="rgb(58,58,58)" stroke-width="1" opacity="1" d="M 1758.5 96 L 1757.5 98 L 1758.5 96 Z " /><path fill="rgb(58,58,58)" stroke="rgb(58,58,58)" stroke-width="1" opacity="1" d="M 397.5 101 L 398 103.5 L 397 103.5 L 397.5 101 Z " /><path fill="rgb(58,58,58)" stroke="rgb(58,58,58)" stroke-width="1" opacity="1" d="M 1571.5 101 L 1572 115.5 L 1571 115.5 L 1571.5 101 Z " /><path fill="rgb(58,58,58)" stroke="rgb(58,58,58)" stroke-width="1" opacity="1" d="M 350.5 102 L 351 106.5 L 350 106.5 L 350.5 102 Z " /><path fill="rgb(58,58,58)" stroke="rgb(58,58,58)" stroke-width="1" opacity="1" d="M 1751.5 103 L 1750.5 105 L 1751.5 103 Z " /><path fill="rgb(58,58,58)" stroke="rgb(58,58,58)" stroke-width="1" opacity="1" d="M 1703.5 106 L 1708 106.5 L 1703.5 107 L 1703.5 106 Z " /><path fill="rgb(58,58,58)" stroke="rgb(58,58,58)" stroke-width="1" opacity="1" d="M 1711.5 118 L 1714 118.5 L 1711.5 119 L 1711.5 118 Z " /><path fill="rgb(58,58,58)" stroke="rgb(58,58,58)" stroke-width="1" opacity="1" d="M 350.5 121 L 351 124.5 L 350 124.5 L 350.5 121 Z " /><path fill="rgb(58,58,58)" stroke="rgb(58,58,58)" stroke-width="1" opacity="1" d="M 898.5 123 L 989 123.5 L 898 124 L 897.5 221 L 897 124.5 L 898.5 123 Z " /><path fill="rgb(58,58,58)" stroke="rgb(58,58,58)" stroke-width="1" opacity="1" d="M 1750.5 123 L 1752.5 126 L 1750.5 123 Z " /><path fill="rgb(58,58,58)" stroke="rgb(58,58,58)" stroke-width="1" opacity="1" d="M 397.5 124 L 398 126.5 L 397 126.5 L 397.5 124 Z " /><path fill="rgb(58,58,58)" stroke="rgb(58,58,58)" stroke-width="1" opacity="1" d="M 1739.5 129 L 1741.5 132 L 1739.5 129 Z " /><path fill="rgb(58,58,58)" stroke="rgb(58,58,58)" stroke-width="1" opacity="1" d="M 351.5 132 L 352 134.5 L 351 134.5 L 351.5 132 Z " /><path fill="rgb(58,58,58)" stroke="rgb(58,58,58)" stroke-width="1" opacity="1" d="M 548.5 140 L 549 142.5 L 548 142.5 L 548.5 140 Z " /><path fill="rgb(58,58,58)" stroke="rgb(58,58,58)" stroke-width="1" opacity="1" d="M 1764.5 158 L 1765 161.5 L 1764 161.5 L 1764.5 158 Z " /><path fill="rgb(58,58,58)" stroke="rgb(58,58,58)" stroke-width="1" opacity="1" d="M 1751.5 163 L 1752 168.5 L 1751 168.5 L 1751.5 163 Z " /><path fill="rgb(58,58,58)" stroke="rgb(58,58,58)" stroke-width="1" opacity="1" d="M 414.5 169 L 418.5 174 L 414.5 169 Z " /><path fill="rgb(58,58,58)" stroke="rgb(58,58,58)" stroke-width="1" opacity="1" d="M 488.5 173 L 486.5 176 L 488.5 173 Z " /><path fill="rgb(58,58,58)" stroke="rgb(58,58,58)" stroke-width="1" opacity="1" d="M 451.5 186 L 459 186.5 L 451.5 187 L 451.5 186 Z " /><path fill="rgb(58,58,58)" stroke="rgb(58,58,58)" stroke-width="1" opacity="1" d="M 374.5 189 L 375.5 191 L 374.5 189 Z " /><path fill="rgb(58,58,58)" stroke="rgb(58,58,58)" stroke-width="1" opacity="1" d="M 530.5 190 L 529.5 192 L 530.5 190 Z " /><path fill="rgb(58,58,58)" stroke="rgb(58,58,58)" stroke-width="1" opacity="1" d="M 527.5 194 L 525.5 197 L 527.5 194 Z " /><path fill="rgb(58,58,58)" stroke="rgb(58,58,58)" stroke-width="1" opacity="1" d="M 379.5 195 L 383.5 200 L 379.5 195 Z " /><path fill="rgb(58,58,58)" stroke="rgb(58,58,58)" stroke-width="1" opacity="1" d="M 1765.5 199 L 1766 201.5 L 1765 201.5 L 1765.5 199 Z " /><path fill="rgb(58,58,58)" stroke="rgb(58,58,58)" stroke-width="1" opacity="1" d="M 388.5 203 L 389.5 205 L 388.5 203 Z " /><path fill="rgb(58,58,58)" stroke="rgb(58,58,58)" stroke-width="1" opacity="1" d="M 518.5 203 L 516.5 206 L 518.5 203 Z " /><path fill="rgb(58,58,58)" stroke="rgb(58,58,58)" stroke-width="1" opacity="1" d="M 1752.5 205 L 1753 207.5 L 1752 207.5 L 1752.5 205 Z " /><path fill="rgb(58,58,58)" stroke="rgb(58,58,58)" stroke-width="1" opacity="1" d="M 444.5 225 L 447 225.5 L 444.5 226 L 444.5 225 Z " /><path fill="rgb(58,58,58)" stroke="rgb(58,58,58)" stroke-width="1" opacity="1" d="M 463.5 225 L 466 225.5 L 463.5 226 L 463.5 225 Z " /></svg>